<?xml version="1.0" standalone="no"?>
<!DOCTYPE svg PUBLIC "-//W3C//DTD SVG 20010904//EN"
        "http://www.w3.org/TR/2001/REC-SVG-20010904/DTD/svg10.dtd">
<svg version="1.0" xmlns="http://www.w3.org/2000/svg"
     width="2124.000000pt" height="2124.000000pt" viewBox="0 0 2124.000000 2124.000000"
     preserveAspectRatio="xMidYMid meet">
    <metadata>
        Created by potrace 1.11, written by Peter Selinger 2001-2013
    </metadata>
    <g transform="translate(0.000000,2124.000000) scale(0.100000,-0.100000)"
       fill="#000000" stroke="none">
        <path d="M14 21232 c3 -5 0 -13 -6 -15 -9 -4 -10 -6 -1 -6 17 -1 25 16 12 25
-7 4 -9 3 -5 -4z"/>
        <path d="M253 21225 c0 -8 4 -12 9 -9 5 3 6 10 3 15 -9 13 -12 11 -12 -6z"/>
        <path d="M10164 21230 c-1120 -41 -2176 -250 -3189 -632 -88 -33 -164 -61
-170 -62 -5 -1 -15 -5 -21 -8 -31 -20 -248 -106 -256 -102 -4 3 -8 1 -8 -4 0
-5 -15 -15 -32 -23 -18 -7 -94 -41 -168 -76 -74 -36 -143 -65 -152 -66 -9 -1
-15 -3 -13 -6 8 -8 -47 -31 -58 -24 -5 3 -7 2 -4 -4 3 -5 -13 -18 -36 -28 -59
-25 -343 -176 -464 -247 -61 -36 -108 -57 -115 -52 -7 4 -9 3 -5 -1 8 -9 -88
-75 -109 -75 -7 0 -14 -4 -16 -9 -1 -4 -22 -20 -46 -35 -36 -23 -46 -25 -60
-15 -14 11 -15 11 -5 -1 10 -11 1 -21 -50 -54 -221 -142 -493 -328 -626 -428
-35 -26 -68 -45 -72 -42 -5 3 -8 1 -7 -4 2 -5 -37 -40 -87 -77 -49 -38 -106
-81 -125 -96 -19 -16 -82 -67 -139 -113 -58 -47 -109 -82 -114 -79 -6 3 -7 1
-3 -5 8 -13 -33 -44 -47 -35 -6 3 -7 2 -4 -4 5 -8 -147 -149 -177 -164 -4 -2
-30 -26 -57 -52 -29 -30 -53 -46 -60 -41 -7 4 -9 3 -6 -3 8 -13 -17 -36 -27
-25 -4 4 -6 2 -4 -4 1 -6 -37 -48 -87 -94 -49 -45 -236 -229 -415 -409 -178
-179 -328 -325 -333 -323 -5 1 -6 -2 -3 -7 8 -13 -74 -102 -86 -94 -6 3 -8 1
-5 -4 9 -14 -72 -105 -86 -96 -6 3 -7 1 -3 -5 9 -14 -24 -53 -38 -45 -6 3 -8
3 -4 -2 10 -11 -72 -106 -84 -98 -6 3 -8 1 -5 -5 4 -5 -30 -55 -75 -109 -46
-55 -121 -147 -168 -206 -46 -59 -88 -107 -92 -107 -4 0 -8 -4 -8 -9 0 -16
-188 -260 -195 -253 -4 4 -5 2 -3 -4 4 -15 -114 -184 -125 -177 -4 2 -6 0 -5
-5 2 -5 -52 -92 -119 -193 -67 -101 -167 -257 -221 -346 -55 -89 -102 -160
-106 -158 -3 3 -4 2 -1 -1 2 -4 -12 -36 -32 -73 -58 -105 -69 -121 -78 -113
-5 4 -5 2 -2 -4 4 -6 -25 -69 -64 -140 -194 -355 -374 -750 -564 -1237 -46
-120 -182 -536 -234 -717 -342 -1200 -462 -2495 -351 -3805 44 -521 129 -1061
235 -1504 19 -78 32 -147 29 -152 -3 -5 -1 -9 4 -9 6 0 13 -17 17 -37 4 -21
20 -85 36 -143 16 -58 27 -111 24 -118 -2 -7 -1 -11 3 -8 5 3 14 -18 22 -47
44 -177 232 -711 348 -992 122 -294 298 -668 416 -884 25 -46 43 -88 39 -94
-3 -5 -2 -7 4 -4 6 4 16 -6 22 -20 7 -15 40 -75 73 -133 34 -58 61 -111 61
-118 0 -6 2 -10 5 -7 8 8 132 -206 126 -217 -5 -7 -2 -8 6 -3 10 6 12 4 7 -8
-3 -9 -2 -16 3 -14 4 1 43 -51 84 -115 168 -257 303 -449 493 -699 68 -88 123
-164 123 -170 0 -5 4 -9 9 -9 14 0 81 -92 74 -103 -3 -5 -2 -7 4 -4 5 4 23
-10 39 -31 77 -97 409 -480 451 -520 13 -12 21 -27 17 -34 -4 -6 -3 -8 3 -5
12 8 115 -98 105 -108 -4 -3 0 -5 8 -3 8 2 14 -3 12 -10 -1 -8 1 -11 6 -8 8 5
147 -141 147 -156 0 -4 5 -8 10 -9 18 -1 55 -42 48 -53 -3 -6 -3 -8 2 -4 11
11 36 -12 28 -25 -3 -5 -2 -7 4 -4 13 8 86 -67 76 -78 -5 -4 -3 -5 3 -2 13 7
214 -180 211 -196 -1 -7 6 -11 17 -9 14 3 17 -1 12 -13 -3 -9 -2 -13 4 -10 8
5 106 -75 150 -124 8 -9 57 -51 107 -94 51 -43 93 -83 93 -88 0 -6 4 -8 8 -5
12 7 74 -59 65 -69 -5 -4 -2 -5 4 -1 8 4 31 -8 58 -30 37 -32 42 -40 32 -53
-10 -14 -10 -14 4 -3 14 11 32 0 125 -75 60 -49 150 -119 199 -157 50 -37 89
-73 87 -78 -1 -5 1 -7 6 -4 10 6 227 -151 227 -164 0 -4 4 -12 9 -17 5 -5 6
-3 2 5 -4 6 -4 12 -1 12 11 0 55 -37 50 -42 -3 -3 1 -5 7 -5 20 0 393 -254
390 -265 -1 -5 2 -7 8 -3 6 3 88 -41 183 -98 189 -115 391 -230 479 -273 31
-15 55 -31 53 -35 -3 -4 1 -6 8 -6 13 1 333 -155 355 -173 6 -6 12 -9 12 -6 0
2 26 -8 58 -24 31 -15 96 -44 144 -65 52 -22 85 -42 81 -48 -3 -6 -1 -7 5 -3
6 4 76 -20 154 -52 79 -33 206 -83 283 -112 77 -29 146 -57 153 -62 6 -6 12
-8 12 -5 0 3 66 -17 148 -45 246 -84 584 -183 819 -239 76 -18 140 -37 141
-41 2 -4 7 -6 11 -3 5 2 104 -15 222 -40 483 -99 926 -158 1489 -197 285 -20
1166 -17 1450 5 378 29 742 74 1050 128 451 79 966 208 1374 344 91 31 171 53
178 49 6 -4 8 -3 5 2 -3 6 40 26 96 46 227 81 522 202 705 289 46 21 85 39 88
39 3 0 103 49 223 109 121 60 222 107 225 104 3 -4 6 -2 6 4 0 12 256 155 278
156 6 0 10 3 7 5 -3 3 32 26 77 52 46 25 132 77 192 115 60 37 115 68 122 68
7 0 11 3 9 7 -2 3 9 14 26 24 16 9 29 14 29 10 0 -4 6 -1 13 8 13 17 227 162
227 154 0 -3 11 5 24 17 12 12 59 47 102 77 43 30 108 76 143 102 35 26 68 45
74 41 5 -3 8 -2 5 3 -8 13 160 137 174 128 6 -4 8 -3 4 4 -3 6 63 66 156 140
90 72 198 160 241 196 43 37 83 63 89 60 6 -4 8 -2 4 4 -7 11 120 129 135 125
5 -2 8 1 6 5 -1 4 23 30 53 57 30 27 60 54 66 59 6 6 62 58 124 116 62 58 144
138 183 178 39 39 78 71 86 70 11 -2 15 3 13 16 -3 14 1 17 13 12 9 -3 14 -2
11 2 -9 14 24 53 42 50 12 -2 16 3 14 16 -3 14 1 17 13 12 10 -4 14 -2 9 5 -3
6 11 28 32 48 228 215 696 756 1001 1158 56 73 104 129 108 125 4 -4 5 -2 3 4
-2 6 24 48 57 94 33 45 67 93 75 105 131 202 298 444 302 439 3 -3 5 1 5 8 -3
20 115 208 126 201 6 -3 7 -1 3 5 -3 5 17 50 45 99 61 106 68 115 83 106 8 -4
8 -3 0 6 -9 10 4 41 54 129 79 142 293 570 352 704 25 56 47 95 53 91 6 -3 7
-1 3 5 -4 6 30 100 75 209 619 1509 855 3142 703 4873 -110 1258 -447 2455
-1003 3565 -69 138 -125 256 -124 263 0 7 -2 11 -5 8 -8 -9 -84 133 -77 144 4
6 2 9 -4 8 -10 -3 -154 238 -154 260 0 6 -3 10 -5 7 -9 -9 -33 35 -26 48 4 6
4 9 -1 5 -4 -4 -44 50 -87 120 -200 319 -612 892 -762 1059 -21 24 -37 43 -34
43 2 0 -15 21 -39 46 -23 26 -40 51 -36 57 3 5 2 8 -3 5 -5 -3 -57 51 -117
121 -156 183 -185 215 -404 445 -86 90 -111 122 -103 131 8 9 8 15 0 20 -6 4
-10 3 -9 -2 3 -20 -2 -25 -16 -13 -8 7 -12 17 -8 23 3 5 2 7 -4 4 -13 -8 -56
37 -46 48 5 4 3 5 -3 2 -14 -8 -37 17 -26 28 4 5 2 5 -4 2 -14 -8 -57 36 -47
48 5 4 3 5 -3 2 -14 -8 -37 17 -26 28 4 5 2 5 -5 2 -6 -4 -23 7 -37 24 -14 17
-26 27 -26 23 0 -5 -33 25 -74 65 -41 41 -74 79 -73 85 1 6 -6 10 -17 8 -13
-3 -17 1 -13 11 3 8 0 14 -7 13 -7 0 -57 40 -112 90 -54 51 -147 133 -206 184
-59 50 -107 96 -105 103 1 6 -5 11 -13 12 -8 0 -32 13 -53 29 -28 21 -35 32
-27 41 8 10 8 15 -1 21 -7 4 -9 3 -5 -4 15 -25 -14 -19 -50 11 -21 18 -104 84
-184 147 -80 62 -144 117 -142 122 1 5 -2 7 -7 4 -5 -4 -22 4 -38 17 -15 13
-65 50 -110 82 -45 32 -80 62 -77 67 3 5 2 8 -3 7 -21 -4 -34 2 -27 13 4 6 3
8 -3 5 -6 -4 -37 12 -69 36 -68 49 -246 171 -304 207 -22 14 -89 56 -150 94
-60 38 -107 72 -104 77 3 5 -3 6 -12 2 -10 -4 -15 -2 -11 4 3 5 0 10 -7 10
-17 0 -126 62 -126 72 0 4 -6 8 -13 8 -7 0 -52 23 -100 51 -48 29 -89 52 -91
52 -2 0 -42 22 -90 50 -164 94 -696 350 -883 425 -25 10 -40 22 -36 28 3 5 1
7 -5 4 -5 -4 -84 22 -174 57 -1341 525 -2760 760 -4264 706z m-534 -1640 c0
-264 -3 -341 -12 -344 -7 -2 -98 -14 -203 -26 -346 -40 -710 -107 -1055 -195
-227 -58 -266 -70 -262 -85 1 -6 52 -174 113 -373 183 -599 177 -577 160 -577
-6 0 -88 -34 -183 -76 -95 -42 -186 -77 -201 -77 -15 0 -23 -3 -18 -7 6 -3
-67 -41 -162 -85 -94 -43 -216 -100 -269 -126 -54 -26 -98 -45 -98 -42 0 3 -6
1 -12 -4 -7 -6 -103 -56 -213 -113 -110 -56 -205 -107 -212 -112 -7 -5 -18 -6
-25 -2 -7 4 -10 4 -6 -1 4 -4 -52 -40 -125 -80 -72 -40 -161 -89 -196 -109
-52 -30 -66 -34 -80 -24 -13 10 -14 10 -4 -2 13 -14 7 -19 -82 -70 -195 -113
-706 -450 -801 -528 -59 -50 -108 -81 -116 -76 -6 4 -8 2 -4 -4 3 -6 -4 -18
-16 -26 -21 -15 -24 -14 -60 21 -20 20 -35 40 -32 45 3 4 1 8 -4 8 -11 0 -201
201 -496 523 -49 53 -92 97 -96 97 -4 0 -70 -60 -145 -132 -76 -73 -142 -132
-147 -130 -5 1 -7 -1 -4 -6 3 -5 -20 -33 -50 -63 -200 -195 -537 -571 -731
-815 -95 -120 -133 -158 -133 -135 0 4 -6 8 -12 8 -7 0 -66 31 -132 69 -65 38
-147 85 -181 104 -35 19 -61 38 -58 44 3 5 1 6 -5 2 -8 -4 -101 42 -141 71 -2
1 36 55 85 120 213 280 265 343 277 336 5 -3 7 -2 4 4 -8 12 90 129 104 125 6
-1 8 2 5 7 -6 10 9 29 192 233 68 76 128 135 133 132 5 -3 8 -1 7 3 -5 16 61
85 74 77 7 -4 8 -3 4 5 -9 14 61 89 294 309 233 220 514 463 532 460 7 -2 12
2 11 8 -2 11 150 133 347 280 125 93 145 106 155 97 4 -5 5 -3 2 3 -7 12 98
87 120 87 7 0 11 2 8 5 -6 6 40 42 53 42 6 0 12 4 14 9 10 26 614 385 631 374
5 -3 7 -2 4 4 -4 6 13 18 36 29 23 10 54 26 70 37 15 10 27 15 27 10 0 -4 4
-3 8 2 13 18 53 36 64 29 6 -4 8 -3 5 3 -7 11 48 39 322 165 106 49 200 87
208 84 8 -3 12 -2 9 3 -3 5 0 11 7 14 388 160 847 322 877 311 8 -3 11 -2 7 3
-9 9 141 53 428 127 418 108 827 184 1340 249 17 2 33 5 38 6 4 0 7 -152 7
-339z m2184 285 c645 -85 1271 -228 1846 -422 183 -61 234 -80 460 -168 295
-115 914 -409 903 -429 -3 -6 -2 -8 2 -3 5 4 38 -9 74 -29 186 -101 280 -158
275 -165 -3 -5 1 -6 8 -4 8 3 23 -2 34 -12 11 -10 32 -25 47 -33 106 -60 176
-104 172 -110 -2 -4 1 -7 8 -7 17 0 257 -162 257 -173 0 -6 4 -9 9 -7 10 2 32
-13 216 -151 261 -195 552 -436 547 -453 -1 -6 2 -8 7 -5 10 7 34 -18 25 -26
-3 -3 0 -9 7 -14 8 -5 10 -3 4 6 -35 57 191 -153 488 -454 201 -204 255 -264
215 -240 -7 4 -8 3 -4 -5 4 -6 11 -9 15 -6 5 2 40 -30 78 -73 105 -116 123
-139 115 -146 -4 -4 -2 -6 5 -4 6 2 54 -49 107 -112 53 -63 102 -122 109 -130
8 -8 69 -86 137 -174 113 -145 122 -160 110 -180 -10 -17 -10 -19 1 -8 15 13
29 16 29 5 0 -13 -70 -54 -80 -48 -5 3 -12 0 -16 -6 -5 -8 -3 -9 7 -4 38 22
-16 -18 -114 -84 -59 -40 -112 -69 -117 -66 -6 4 -9 2 -8 -3 4 -14 -143 -113
-155 -105 -6 3 -8 2 -4 -3 3 -5 -9 -19 -27 -31 l-33 -21 -84 111 c-46 61 -123
158 -171 216 -47 58 -84 109 -81 114 2 4 -1 6 -8 5 -6 -2 -14 3 -17 11 -3 9 0
11 8 6 9 -5 11 -4 6 4 -4 6 -11 9 -15 6 -5 -2 -56 50 -114 118 -58 67 -117
136 -132 152 -15 17 -50 57 -80 90 -29 33 -118 128 -198 210 l-145 150 -58
-55 c-33 -30 -101 -101 -153 -157 -52 -56 -99 -99 -105 -96 -6 3 -8 2 -3 -2
10 -12 -23 -46 -37 -38 -6 3 -8 3 -4 -2 11 -11 -12 -36 -25 -28 -5 3 -7 2 -4
-4 4 -6 -7 -22 -23 -37 -17 -14 -30 -31 -30 -37 0 -6 -7 -8 -16 -5 -9 3 -12 2
-9 -4 9 -14 -155 -181 -168 -173 -6 3 -7 1 -4 -4 4 -6 -2 -18 -12 -28 -19 -16
-22 -15 -65 10 -25 15 -46 31 -46 37 0 5 -4 7 -8 4 -12 -7 -114 59 -105 69 5
4 3 5 -4 1 -15 -8 -136 67 -126 79 5 4 3 5 -4 1 -16 -9 -265 142 -257 156 4 7
2 8 -5 4 -10 -7 -63 21 -186 99 -27 17 -113 69 -190 115 -295 176 -493 295
-575 345 -91 55 -165 99 -272 160 -37 21 -64 43 -61 48 3 6 1 7 -4 4 -12 -7
-191 95 -205 115 -4 7 -8 9 -8 4 0 -4 -12 -1 -26 9 -14 9 -51 31 -83 48 -87
47 -111 63 -106 69 3 2 -1 5 -7 5 -20 0 -338 179 -333 187 3 3 2 4 -1 1 -8 -5
-128 54 -132 66 -2 5 -7 7 -11 5 -4 -3 -13 -1 -19 3 -10 6 -2 36 29 122 42
118 118 332 219 621 l59 167 -127 42 c-173 56 -471 141 -617 175 -66 15 -122
31 -123 36 -2 4 -7 6 -11 3 -5 -2 -95 13 -202 35 -181 36 -448 79 -599 97
l-65 8 -3 328 c-1 180 2 327 6 327 5 0 93 -11 196 -25z m-651 -2889 c93 -9
230 -25 305 -36 128 -19 414 -69 418 -73 1 -1 -31 -166 -72 -367 -41 -201 -97
-473 -124 -605 -52 -253 -101 -497 -276 -1357 -59 -290 -105 -530 -102 -533 3
-3 66 -22 139 -41 235 -61 467 -149 681 -257 211 -107 487 -284 470 -302 -4
-5 -2 -5 5 -1 7 4 47 -22 95 -60 114 -92 138 -115 131 -127 -3 -6 -1 -7 6 -3
14 9 261 -231 265 -259 2 -11 8 -19 14 -18 6 1 29 -20 52 -47 23 -28 47 -50
53 -50 7 1 24 11 38 23 124 105 152 126 161 121 6 -4 8 -2 5 3 -8 13 17 36 27
25 4 -4 6 -2 4 4 -4 14 322 285 335 277 5 -3 7 -1 3 5 -3 6 6 20 21 31 16 11
36 28 45 37 10 9 22 13 30 8 7 -4 10 -3 5 1 -9 11 23 46 35 39 4 -3 7 -1 6 4
-2 6 47 51 107 101 61 50 132 110 159 133 27 24 56 42 63 42 8 -1 12 1 9 4 -7
6 33 52 46 52 4 0 20 13 35 28 16 15 53 48 83 72 30 25 89 73 130 108 41 34
95 79 119 100 25 20 51 36 58 36 7 -1 11 2 8 6 -8 12 175 161 187 154 6 -4 8
-3 5 3 -6 9 85 89 263 235 25 20 58 48 74 62 16 14 33 23 39 19 5 -3 7 -1 4 4
-8 12 60 68 83 68 8 1 14 6 13 12 -3 16 44 56 57 48 23 -14 199 -238 194 -247
-3 -5 -1 -7 4 -6 11 4 37 -28 148 -182 126 -174 144 -202 137 -214 -3 -6 -3
-8 2 -4 11 10 58 -59 50 -72 -4 -6 -1 -9 5 -8 14 4 202 -302 196 -319 -3 -7
-1 -12 5 -10 13 3 171 -298 257 -493 94 -210 187 -459 176 -469 -5 -5 -126
-48 -269 -96 -143 -48 -330 -112 -415 -141 -313 -107 -1078 -367 -1190 -404
-63 -20 -294 -99 -514 -174 -219 -74 -402 -133 -407 -131 -4 3 1 -25 12 -62
50 -177 91 -338 109 -438 105 -565 66 -1143 -114 -1726 l-14 -45 144 -54 c79
-29 141 -57 138 -61 -3 -5 1 -6 9 -3 8 3 117 -33 243 -80 126 -46 339 -125
474 -174 135 -49 412 -151 615 -227 204 -75 456 -168 560 -206 105 -39 205
-77 223 -85 18 -7 39 -14 47 -14 8 0 15 -4 15 -8 0 -5 6 -9 13 -9 24 0 247
-86 247 -95 0 -5 -22 -66 -49 -136 -158 -405 -333 -758 -549 -1102 -179 -286
-518 -740 -542 -725 -6 3 -7 0 -5 -7 3 -8 -5 -24 -18 -36 l-24 -22 -19 22
c-10 12 -13 18 -5 13 10 -5 12 -4 7 4 -4 6 -11 9 -16 6 -5 -3 -78 56 -162 132
-84 76 -206 185 -270 242 -65 57 -115 108 -111 114 3 5 1 7 -4 4 -9 -6 -97 64
-154 122 -9 9 -38 35 -65 58 -179 153 -449 402 -446 412 1 7 -2 10 -7 6 -10
-5 -40 19 -146 116 -27 25 -90 82 -140 125 -49 43 -92 81 -95 84 -3 3 -62 56
-132 118 -71 63 -128 118 -128 123 0 5 -4 8 -8 7 -15 -5 -252 214 -245 226 3
6 2 8 -2 3 -5 -4 -20 0 -34 9 -17 12 -26 14 -29 5 -2 -6 -9 -8 -14 -5 -6 4 -8
3 -5 -3 3 -5 -47 -61 -111 -124 -154 -152 -222 -210 -235 -202 -5 3 -7 2 -4
-3 6 -10 -153 -144 -171 -144 -6 0 -12 -4 -14 -8 -7 -18 -91 -71 -102 -65 -6
3 -8 2 -3 -2 21 -24 -368 -240 -610 -339 -198 -81 -462 -161 -650 -197 -35 -6
-63 -15 -63 -20 0 -4 9 -54 20 -111 11 -57 55 -299 99 -538 152 -834 311
-1697 360 -1965 28 -148 49 -270 48 -271 -5 -5 -345 -55 -472 -69 -520 -57
-1046 -45 -1568 36 -132 20 -328 56 -333 61 -1 2 42 224 97 493 55 270 127
621 159 780 59 287 234 1147 291 1424 16 79 29 149 29 156 0 6 -57 25 -132 44
-276 68 -523 158 -748 274 -148 76 -220 120 -213 130 3 6 1 7 -5 3 -23 -14
-428 275 -416 297 4 7 4 9 -1 5 -10 -9 -37 11 -30 22 3 4 -1 7 -8 6 -17 -1
-97 70 -97 86 0 6 -3 8 -7 4 -10 -9 -163 145 -156 157 3 6 2 7 -4 4 -13 -8
-106 100 -98 113 3 6 -1 7 -9 4 -9 -4 -18 1 -22 10 -3 9 -11 16 -16 16 -6 0
-67 -49 -137 -108 -499 -426 -507 -433 -516 -424 -3 4 -5 2 -3 -5 1 -6 -53
-59 -122 -118 -69 -59 -152 -131 -184 -159 -33 -28 -65 -50 -72 -50 -8 1 -12
-2 -9 -6 7 -12 -76 -81 -88 -73 -5 3 -7 2 -4 -4 4 -5 -75 -79 -175 -164 -99
-85 -197 -169 -217 -186 -20 -18 -41 -31 -48 -28 -7 2 -10 -2 -6 -11 5 -13 -8
-19 -30 -15 -5 1 -6 -2 -3 -7 5 -9 -577 -512 -591 -512 -16 1 -74 80 -67 92 4
6 3 8 -3 5 -17 -10 -231 268 -400 518 -251 374 -489 835 -667 1298 -25 66 -46
124 -46 131 0 7 161 64 398 141 218 71 456 147 527 171 72 23 276 89 455 147
1407 455 1395 451 1393 468 -1 8 -17 75 -36 149 -39 149 -80 384 -99 560 -19
177 -16 643 6 825 22 187 75 456 121 620 19 69 35 131 35 137 0 8 -73 40 -168
74 -1038 382 -1842 679 -1892 699 -59 23 -531 196 -597 218 -42 14 -63 26 -62
37 1 30 65 181 73 173 5 -4 6 -2 2 5 -9 15 96 264 195 464 83 166 199 376 288
518 144 230 377 554 391 545 5 -3 12 0 16 6 4 8 3 9 -4 5 -25 -15 -10 7 70
104 45 54 86 96 91 93 6 -3 8 -2 4 3 -3 5 8 25 23 44 25 30 32 33 47 23 10 -6
17 -17 15 -25 -2 -7 0 -10 4 -5 10 10 45 -23 37 -36 -3 -6 -1 -7 6 -3 14 9
184 -141 175 -155 -3 -5 1 -6 9 -3 8 3 21 -3 28 -13 8 -10 68 -65 134 -123 66
-57 145 -127 175 -155 30 -27 135 -121 233 -209 97 -87 174 -163 170 -169 -3
-6 -1 -7 6 -3 9 6 134 -95 191 -154 3 -3 80 -72 172 -154 92 -82 165 -153 161
-159 -3 -6 -1 -7 5 -3 13 8 184 -142 176 -155 -3 -5 -2 -9 3 -8 23 4 35 -2 29
-17 -3 -9 -2 -12 5 -9 5 4 34 -15 62 -42 86 -79 385 -343 389 -343 2 0 67 62
143 138 181 178 335 307 516 432 39 27 77 47 83 43 6 -3 8 -3 4 2 -18 19 439
274 464 259 7 -4 10 -3 5 1 -19 21 362 159 621 224 84 21 154 40 157 43 2 2
-16 112 -40 244 -24 131 -94 511 -155 844 -232 1268 -262 1430 -296 1609 -19
101 -33 186 -30 188 14 14 523 65 776 77 161 8 714 -4 873 -18z m-8740 -2721
c96 -55 172 -104 169 -109 -3 -5 0 -6 6 -2 6 3 26 -3 45 -14 l35 -21 -50 -122
c-165 -402 -312 -841 -418 -1250 -16 -65 -30 -124 -30 -131 0 -9 154 -52 473
-131 259 -65 473 -118 474 -119 1 -1 -13 -91 -32 -201 -104 -610 -145 -1044
-145 -1542 0 -486 36 -891 117 -1323 13 -74 26 -148 26 -164 l2 -30 -200 -37
c-110 -21 -325 -62 -477 -90 -153 -29 -282 -55 -287 -58 -9 -6 48 -265 103
-466 101 -375 244 -789 392 -1135 29 -68 52 -125 51 -125 -1 -1 -56 -33 -122
-72 -66 -39 -136 -80 -155 -90 -19 -11 -92 -54 -162 -97 -71 -42 -130 -76
-132 -76 -15 0 -198 468 -294 750 -292 860 -446 1667 -493 2575 -14 278 -6
856 16 1133 78 986 292 1889 666 2813 33 81 75 182 94 224 l35 76 59 -33 c32
-18 137 -78 234 -133z m16756 0 c34 -82 68 -165 77 -183 8 -18 12 -37 9 -42
-3 -4 -1 -10 4 -12 17 -6 174 -453 264 -753 347 -1154 466 -2331 357 -3510
-87 -929 -303 -1806 -664 -2693 -87 -214 -86 -211 -105 -205 -24 9 -136 77
-139 86 -2 4 -8 7 -14 7 -6 0 -56 28 -112 61 -55 34 -121 73 -145 87 -58 32
-145 83 -149 87 -2 2 8 25 21 52 82 160 232 542 306 775 80 251 183 651 170
662 -2 1 -217 56 -478 121 l-474 118 7 76 c14 173 57 727 81 1031 13 179 34
453 46 610 42 543 22 933 -72 1384 -22 106 -28 150 -20 155 6 4 55 15 109 25
53 10 185 35 292 56 107 21 269 53 360 70 91 18 168 35 172 39 13 12 -92 453
-183 771 -75 260 -262 800 -333 962 -6 13 9 25 71 60 43 25 158 91 256 147 97
56 183 99 189 95 6 -4 8 -3 4 4 -7 11 15 23 25 13 4 -3 35 -73 68 -156z
m-15435 -8883 c42 -57 74 -107 71 -113 -4 -5 -2 -8 4 -7 6 2 36 -28 66 -67 57
-72 64 -80 184 -225 38 -46 67 -88 64 -94 -3 -5 -2 -6 4 -3 5 3 45 -35 89 -86
43 -50 167 -181 275 -291 164 -168 199 -199 211 -188 8 6 19 8 23 4 5 -4 5 -2
2 5 -4 6 -1 17 6 25 7 7 86 95 176 196 91 101 168 179 173 175 7 -3 8 -1 4 5
-9 15 262 317 285 317 9 0 44 -25 76 -55 71 -67 238 -212 352 -304 46 -37 89
-72 95 -77 101 -85 439 -321 638 -447 70 -44 125 -82 123 -84 -3 -3 1 -5 7 -5
7 0 73 -34 146 -77 73 -42 165 -92 205 -112 40 -20 75 -41 78 -46 3 -5 8 -8
10 -7 2 2 67 -28 144 -65 263 -128 586 -263 820 -343 55 -18 105 -36 112 -38
8 -3 -41 -161 -147 -481 -88 -263 -158 -479 -156 -481 14 -14 668 -169 921
-217 241 -46 757 -126 815 -126 6 0 10 -124 10 -340 0 -331 -1 -340 -20 -340
-42 0 -437 53 -631 85 -182 31 -505 94 -629 125 -660 161 -1180 339 -1725 589
-288 133 -681 340 -670 354 3 4 2 5 -2 2 -3 -3 -31 9 -62 27 -97 54 -346 211
-349 220 -2 4 -8 8 -14 8 -6 0 -27 14 -48 30 -21 17 -40 30 -43 30 -16 0 -115
78 -109 85 4 5 2 5 -5 2 -6 -4 -37 12 -70 36 -240 176 -276 204 -488 375 -147
119 -274 234 -272 245 1 7 -5 11 -13 10 -16 -3 -127 101 -123 115 1 4 -5 6
-14 4 -11 -2 -14 1 -10 12 4 9 1 13 -6 10 -18 -6 -470 452 -461 467 4 7 3 9
-4 5 -17 -10 -338 354 -324 369 4 5 2 5 -4 2 -6 -3 -38 29 -72 72 -34 43 -69
84 -77 91 -18 15 -20 35 -3 24 7 -4 8 -3 4 5 -4 6 -11 9 -16 6 -6 -4 -121 139
-254 317 l-27 37 120 71 c68 40 126 68 132 64 8 -4 9 -3 5 5 -4 6 0 14 11 18
10 3 30 15 45 25 16 11 33 16 39 12 7 -4 9 -3 6 3 -5 7 213 147 219 140 1 -1
36 -48 78 -105z m13944 39 c24 -14 51 -30 61 -36 215 -126 269 -160 264 -168
-3 -6 -1 -7 5 -3 12 7 102 -44 102 -59 -1 -17 -57 -85 -64 -77 -4 4 -6 2 -4
-4 2 -7 -28 -53 -66 -103 -60 -80 -70 -90 -85 -79 -14 11 -14 11 -3 -3 14 -19
11 -22 -196 -271 -67 -81 -119 -135 -126 -131 -6 3 -8 3 -4 -2 14 -15 -207
-259 -225 -248 -6 4 -7 1 -2 -7 9 -15 -454 -483 -472 -476 -7 3 -10 -1 -6 -10
4 -11 0 -15 -13 -12 -11 2 -18 -2 -17 -9 3 -14 -156 -158 -174 -157 -7 1 -11
-2 -8 -6 8 -12 -62 -73 -76 -65 -7 5 -10 4 -6 -2 8 -13 -20 -38 -162 -152 -63
-50 -118 -88 -123 -85 -5 3 -7 1 -6 -4 2 -6 -24 -31 -57 -56 -33 -25 -64 -49
-70 -54 -65 -51 -172 -125 -182 -125 -7 0 -10 -3 -8 -7 3 -5 -118 -93 -202
-145 -17 -11 -70 -46 -118 -78 -47 -31 -91 -54 -97 -51 -6 4 -8 3 -5 -3 7 -11
-139 -100 -157 -95 -6 2 -7 0 -3 -4 4 -5 -6 -15 -22 -24 -16 -8 -71 -39 -121
-67 -51 -29 -97 -50 -104 -46 -6 3 -8 3 -4 -2 11 -11 -24 -31 -252 -145 -285
-143 -477 -229 -725 -327 -198 -79 -467 -174 -473 -168 -3 3 -11 0 -17 -5 -24
-20 -409 -131 -710 -205 -418 -102 -782 -165 -1317 -228 l-28 -4 0 327 0 328
98 11 c416 51 804 129 1230 248 l203 57 -3 30 c-2 17 -6 33 -9 36 -3 3 -36 98
-72 213 -37 114 -97 299 -133 413 -37 113 -64 207 -62 210 3 2 83 24 179 49
420 107 826 271 1222 493 70 40 132 72 137 72 4 0 10 3 12 8 7 16 171 112 181
105 7 -3 9 -3 5 2 -4 4 59 53 140 108 81 55 209 147 285 204 76 57 143 100
149 97 6 -4 8 -2 5 3 -4 6 37 46 90 89 107 86 309 262 388 336 27 26 53 48 56
48 7 0 208 -213 539 -574 25 -27 55 -58 68 -70 13 -11 20 -26 17 -35 -3 -9 -3
-12 1 -8 4 4 15 0 25 -9 21 -18 2 -34 268 218 172 161 414 415 540 565 24 29
49 50 55 46 6 -3 8 -3 4 2 -9 10 82 126 94 119 4 -3 7 -1 6 4 -4 15 73 113 83
106 5 -3 8 -1 7 5 -2 6 33 58 77 116 l80 104 35 -21 c19 -12 54 -33 78 -47z"/>
        <path d="M91 21213 c-1 -17 16 -25 25 -12 4 7 3 9 -4 5 -5 -3 -13 0 -15 6 -4
9 -6 10 -6 1z"/>
        <path d="M30 21206 c0 -2 7 -6 15 -10 8 -3 15 -1 15 4 0 6 -7 10 -15 10 -8 0
-15 -2 -15 -4z"/>
        <path d="M153 21193 c0 -9 4 -10 14 -2 7 6 13 12 13 14 0 1 -6 2 -13 2 -8 0
-14 -6 -14 -14z"/>
        <path d="M17 21183 c-3 -5 0 -17 4 -28 8 -18 9 -18 5 3 -3 18 -1 22 10 18 9
-3 12 -1 9 4 -7 12 -22 13 -28 3z"/>
        <path d="M120 21180 c-9 -6 -10 -10 -3 -10 6 0 15 5 18 10 8 12 4 12 -15 0z"/>
        <path d="M155 21161 c-3 -5 -2 -12 3 -15 5 -3 9 1 9 9 0 17 -3 19 -12 6z"/>
        <path d="M62 21124 c10 -10 20 -16 22 -13 3 3 -5 11 -17 18 -21 13 -21 12 -5
-5z"/>
        <path d="M16 21113 c-6 -14 -5 -15 5 -6 7 7 10 15 7 18 -3 3 -9 -2 -12 -12z"/>
        <path d="M106 21118 c3 -5 10 -6 15 -3 13 9 11 12 -6 12 -8 0 -12 -4 -9 -9z"/>
        <path d="M305 21120 c-3 -6 1 -7 9 -4 18 7 21 14 7 14 -6 0 -13 -4 -16 -10z"/>
        <path d="M75 21091 c-3 -6 -14 -8 -24 -6 -10 2 -18 -3 -18 -11 0 -9 4 -11 12
-4 7 5 14 8 17 5 3 -3 11 1 18 10 7 8 10 15 7 15 -3 0 -8 -4 -12 -9z"/>
        <path d="M145 21080 c-3 -6 1 -7 9 -4 18 7 21 14 7 14 -6 0 -13 -4 -16 -10z"/>
        <path d="M90 21060 c0 -5 5 -10 11 -10 5 0 7 5 4 10 -3 6 -8 10 -11 10 -2 0
-4 -4 -4 -10z"/>
        <path d="M35 21039 c-3 -4 2 -6 10 -5 21 3 28 13 10 13 -9 0 -18 -4 -20 -8z"/>
        <path d="M35 21009 c-4 -6 -5 -12 -2 -15 2 -3 7 2 10 11 7 17 1 20 -8 4z"/>
        <path d="M19 20948 c-5 -18 -6 -38 -1 -34 7 8 12 36 6 36 -2 0 -4 -1 -5 -2z"/>
        <path d="M19005 4221 c-3 -5 -2 -12 3 -15 5 -3 9 1 9 9 0 17 -3 19 -12 6z"/>
        <path d="M4466 1978 c3 -5 10 -6 15 -3 13 9 11 12 -6 12 -8 0 -12 -4 -9 -9z"/>
    </g>
</svg>
