<svg xmlns="http://www.w3.org/2000/svg" width="1551.08" height="230.225" viewBox="0 0 1454.137 215.836"><path style="isolation:auto;mix-blend-mode:normal" d="M20.678 215.836h1411.526l21.933-21.381V62.947l-41.658-42.348H41.747L0 63.128v131.085z" color="#000" overflow="visible" fill="#bcae9a"/><g transform="translate(-74.011 -61.462)"><path class="swrpg_secondary" d="M122.082 61.93h175.826l14.146 14.799v6.274l-14.146 14.586H122.082l-14.264-14.586v-6.274zM122.082 101.6h175.826l14.146 14.798v6.274l-14.146 14.586H122.082l-14.264-14.586v-6.274zM122.082 141.185h175.826l14.146 14.798v6.274l-14.146 14.586H122.082l-14.264-14.586v-6.274zM121.075 180.876H296.9l14.147 14.798v58.674L296.9 268.934H121.075l-14.264-14.586v-58.674z" style="isolation:auto;mix-blend-mode:normal" color="#000" overflow="visible" fill="#51634b" stroke="#000" stroke-width=".938" stroke-linecap="round"/><circle r="73.039" cy="143.375" cx="210.12" style="isolation:auto;mix-blend-mode:normal" color="#000" overflow="visible" fill="#f5f5f5" stroke="#000" stroke-width="7.031" stroke-linecap="round"/><circle r="63.332" cy="143.375" cx="209.883" style="isolation:auto;mix-blend-mode:normal" color="#000" overflow="visible" opacity=".95" fill="none" stroke="#000" stroke-width="2.813" stroke-linecap="round"/><circle r="57.058" cy="143.731" cx="210.001" style="isolation:auto;mix-blend-mode:normal" color="#000" overflow="visible" opacity=".95" fill="none" stroke="#000" stroke-width="1.406" stroke-linecap="round"/><path class="primary_colour" d="M122.082 226.33h175.566l7.458 8.196v21.099l-7.458 8.798H122.082l-7.758-8.826v-21.071z" style="isolation:auto;mix-blend-mode:normal" color="#000" overflow="visible" fill="#761213"/></g><g transform="translate(163.186 -61.462)"><path class="swrpg_secondary" d="M122.082 61.93h175.826l14.146 14.799v6.274l-14.146 14.586H122.082l-14.264-14.586v-6.274zM122.082 101.6h175.826l14.146 14.798v6.274l-14.146 14.586H122.082l-14.264-14.586v-6.274zM122.082 141.185h175.826l14.146 14.798v6.274l-14.146 14.586H122.082l-14.264-14.586v-6.274zM121.075 180.876H296.9l14.147 14.798v58.674L296.9 268.934H121.075l-14.264-14.586v-58.674z" style="isolation:auto;mix-blend-mode:normal" color="#000" overflow="visible" fill="#51634b" stroke="#000" stroke-width=".938" stroke-linecap="round"/><circle r="73.039" cy="143.375" cx="210.12" style="isolation:auto;mix-blend-mode:normal" color="#000" overflow="visible" fill="#f5f5f5" stroke="#000" stroke-width="7.031" stroke-linecap="round"/><circle r="63.332" cy="143.375" cx="209.883" style="isolation:auto;mix-blend-mode:normal" color="#000" overflow="visible" opacity=".95" fill="none" stroke="#000" stroke-width="2.813" stroke-linecap="round"/><circle r="57.058" cy="143.731" cx="210.001" style="isolation:auto;mix-blend-mode:normal" color="#000" overflow="visible" opacity=".95" fill="none" stroke="#000" stroke-width="1.406" stroke-linecap="round"/><path class="primary_colour" d="M122.082 226.33h175.566l7.458 8.196v21.099l-7.458 8.798H122.082l-7.758-8.826v-21.071z" style="isolation:auto;mix-blend-mode:normal" color="#000" overflow="visible" fill="#761213"/></g><g transform="translate(400.412 -61.462)"><path class="swrpg_secondary" d="M122.082 61.93h175.826l14.146 14.799v6.274l-14.146 14.586H122.082l-14.264-14.586v-6.274zM122.082 101.6h175.826l14.146 14.798v6.274l-14.146 14.586H122.082l-14.264-14.586v-6.274zM122.082 141.185h175.826l14.146 14.798v6.274l-14.146 14.586H122.082l-14.264-14.586v-6.274zM121.075 180.876H296.9l14.147 14.798v58.674L296.9 268.934H121.075l-14.264-14.586v-58.674z" style="isolation:auto;mix-blend-mode:normal" color="#000" overflow="visible" fill="#51634b" stroke="#000" stroke-width=".938" stroke-linecap="round"/><circle r="73.039" cy="143.375" cx="210.12" style="isolation:auto;mix-blend-mode:normal" color="#000" overflow="visible" fill="#f5f5f5" stroke="#000" stroke-width="7.031" stroke-linecap="round"/><circle r="63.332" cy="143.375" cx="209.883" style="isolation:auto;mix-blend-mode:normal" color="#000" overflow="visible" opacity=".95" fill="none" stroke="#000" stroke-width="2.813" stroke-linecap="round"/><circle r="57.058" cy="143.731" cx="210.001" style="isolation:auto;mix-blend-mode:normal" color="#000" overflow="visible" opacity=".95" fill="none" stroke="#000" stroke-width="1.406" stroke-linecap="round"/><path class="primary_colour" d="M122.082 226.33h175.566l7.458 8.196v21.099l-7.458 8.798H122.082l-7.758-8.826v-21.071z" style="isolation:auto;mix-blend-mode:normal" color="#000" overflow="visible" fill="#761213"/></g><g transform="translate(638.38 -61.462)"><path class="swrpg_secondary" d="M122.082 61.93h175.826l14.146 14.799v6.274l-14.146 14.586H122.082l-14.264-14.586v-6.274zM122.082 101.6h175.826l14.146 14.798v6.274l-14.146 14.586H122.082l-14.264-14.586v-6.274zM122.082 141.185h175.826l14.146 14.798v6.274l-14.146 14.586H122.082l-14.264-14.586v-6.274zM121.075 180.876H296.9l14.147 14.798v58.674L296.9 268.934H121.075l-14.264-14.586v-58.674z" style="isolation:auto;mix-blend-mode:normal" color="#000" overflow="visible" fill="#51634b" stroke="#000" stroke-width=".938" stroke-linecap="round"/><circle r="73.039" cy="143.375" cx="210.12" style="isolation:auto;mix-blend-mode:normal" color="#000" overflow="visible" fill="#f5f5f5" stroke="#000" stroke-width="7.031" stroke-linecap="round"/><circle r="63.332" cy="143.375" cx="209.883" style="isolation:auto;mix-blend-mode:normal" color="#000" overflow="visible" opacity=".95" fill="none" stroke="#000" stroke-width="2.813" stroke-linecap="round"/><circle r="57.058" cy="143.731" cx="210.001" style="isolation:auto;mix-blend-mode:normal" color="#000" overflow="visible" opacity=".95" fill="none" stroke="#000" stroke-width="1.406" stroke-linecap="round"/><path class="primary_colour" d="M122.082 226.33h175.566l7.458 8.196v21.099l-7.458 8.798H122.082l-7.758-8.826v-21.071z" style="isolation:auto;mix-blend-mode:normal" color="#000" overflow="visible" fill="#761213"/></g><g transform="translate(874.421 -61.462)"><path class="swrpg_secondary" d="M122.082 61.93h175.826l14.146 14.799v6.274l-14.146 14.586H122.082l-14.264-14.586v-6.274zM122.082 101.6h175.826l14.146 14.798v6.274l-14.146 14.586H122.082l-14.264-14.586v-6.274zM122.082 141.185h175.826l14.146 14.798v6.274l-14.146 14.586H122.082l-14.264-14.586v-6.274zM121.075 180.876H296.9l14.147 14.798v58.674L296.9 268.934H121.075l-14.264-14.586v-58.674z" style="isolation:auto;mix-blend-mode:normal" color="#000" overflow="visible" fill="#51634b" stroke="#000" stroke-width=".938" stroke-linecap="round"/><circle r="73.039" cy="143.375" cx="210.12" style="isolation:auto;mix-blend-mode:normal" color="#000" overflow="visible" fill="#f5f5f5" stroke="#000" stroke-width="7.031" stroke-linecap="round"/><circle r="63.332" cy="143.375" cx="209.883" style="isolation:auto;mix-blend-mode:normal" color="#000" overflow="visible" opacity=".95" fill="none" stroke="#000" stroke-width="2.813" stroke-linecap="round"/><circle r="57.058" cy="143.731" cx="210.001" style="isolation:auto;mix-blend-mode:normal" color="#000" overflow="visible" opacity=".95" fill="none" stroke="#000" stroke-width="1.406" stroke-linecap="round"/><path class="primary_colour" d="M122.082 226.33h175.566l7.458 8.196v21.099l-7.458 8.798H122.082l-7.758-8.826v-21.071z" style="isolation:auto;mix-blend-mode:normal" color="#000" overflow="visible" fill="#761213"/></g><g transform="translate(1112.728 -61.462)"><path class="swrpg_secondary" d="M122.082 61.93h175.826l14.146 14.799v6.274l-14.146 14.586H122.082l-14.264-14.586v-6.274zM122.082 101.6h175.826l14.146 14.798v6.274l-14.146 14.586H122.082l-14.264-14.586v-6.274zM122.082 141.185h175.826l14.146 14.798v6.274l-14.146 14.586H122.082l-14.264-14.586v-6.274zM121.075 180.876H296.9l14.147 14.798v58.674L296.9 268.934H121.075l-14.264-14.586v-58.674z" style="isolation:auto;mix-blend-mode:normal" color="#000" overflow="visible" fill="#51634b" stroke="#000" stroke-width=".938" stroke-linecap="round"/><circle r="73.039" cy="143.375" cx="210.12" style="isolation:auto;mix-blend-mode:normal" color="#000" overflow="visible" fill="#f5f5f5" stroke="#000" stroke-width="7.031" stroke-linecap="round"/><circle r="63.332" cy="143.375" cx="209.883" style="isolation:auto;mix-blend-mode:normal" color="#000" overflow="visible" opacity=".95" fill="none" stroke="#000" stroke-width="2.813" stroke-linecap="round"/><circle r="57.058" cy="143.731" cx="210.001" style="isolation:auto;mix-blend-mode:normal" color="#000" overflow="visible" opacity=".95" fill="none" stroke="#000" stroke-width="1.406" stroke-linecap="round"/><path class="primary_colour" d="M122.082 226.33h175.566l7.458 8.196v21.099l-7.458 8.798H122.082l-7.758-8.826v-21.071z" style="isolation:auto;mix-blend-mode:normal" color="#000" overflow="visible" fill="#761213"/></g></svg>