<svg xmlns="http://www.w3.org/2000/svg" width="626.786" height="122.836" viewBox="0 0 165.837 32.5"><g opacity=".98"><g><path d="M137.816.164h22.82l3.89 3.811v7.545l-3.89 3.89h-22.82l-3.928-3.89V3.975z" fill="#bcae9a" stroke="#284666" stroke-width=".099"/><path d="M138.077.836h22.26l3.586 3.587v6.65l-3.586 3.586h-22.26l-3.586-3.586v-6.65z" fill="#fff" stroke="#284666" stroke-width=".46"/><path d="M138.31 1.34h21.807l2.083 2.084-2.083 2.083H138.31l-2.083-2.083z" fill="#284666"/></g><g><path d="M78.783.164h48.948l3.89 3.811v7.545l-3.89 3.89H78.783l-3.928-3.89V3.975z" fill="#bcae9a" stroke="#284666" stroke-width=".099"/><path d="M79.044.836h48.387l3.586 3.587v6.65l-3.586 3.586H79.044l-3.587-3.586v-6.65z" fill="#fff" stroke="#284666" stroke-width=".46"/><path d="M79.277 1.34h47.934l2.083 2.084-2.083 2.083H79.277l-2.084-2.083z" fill="#284666"/></g><path class="swrpg_secondary" d="M51.44.055H71.9l1.646 1.722v.73L71.9 4.204H51.44l-1.66-1.697v-.73zM51.44 4.67H71.9l1.646 1.723v.73L71.9 8.82H51.44l-1.66-1.697v-.73zM51.44 9.277H71.9L73.546 11v.73L71.9 13.427H51.44l-1.66-1.698V11zM51.322 13.896h20.46l1.647 1.722v6.828l-1.646 1.697H51.322l-1.66-1.697v-6.828z" style="isolation:auto;mix-blend-mode:normal" color="#000" overflow="visible" fill="#284666" stroke="#000" stroke-width=".10915506" stroke-linecap="round"/><path class="primary_colour" d="M51.44 19.185h20.43l.867.954v2.456l-.867 1.023H51.44l-.904-1.027V20.14z" style="isolation:auto;mix-blend-mode:normal" color="#000" overflow="visible" fill="#00aeef"/><path style="isolation:auto;mix-blend-mode:normal" d="M56.921 1.895h9.791l2.676 2.884v9.817l-2.676 2.835h-9.79l-2.796-2.835V4.779z" color="#000" overflow="visible" fill="#f2f6fa" stroke="#000" stroke-width=".7010128800000001" stroke-linecap="round"/><path style="isolation:auto;mix-blend-mode:normal" d="M55.283 5.201L57.37 3.04h8.874L68.342 5.2v8.945l-2.107 2.172H57.37l-2.088-2.172z" color="#000" overflow="visible" fill="none" stroke="#000" stroke-width=".2885976" stroke-linecap="round"/><path class="swrpg_secondary" d="M26.916.055h20.461l1.646 1.722v.73l-1.646 1.697h-20.46l-1.66-1.697v-.73zM26.916 4.67h20.461l1.646 1.723v.73L47.377 8.82h-20.46l-1.66-1.697v-.73zM26.916 9.277h20.461L49.023 11v.73l-1.646 1.698h-20.46l-1.66-1.698V11zM26.8 13.896h20.46l1.646 1.722v6.828l-1.646 1.697H26.8l-1.66-1.697v-6.828z" style="isolation:auto;mix-blend-mode:normal" color="#000" overflow="visible" fill="#284666" stroke="#000" stroke-width=".10915506" stroke-linecap="round"/><path class="primary_colour" d="M26.916 19.185h20.43l.869.954v2.456l-.868 1.023h-20.43l-.903-1.027V20.14z" style="isolation:auto;mix-blend-mode:normal" color="#000" overflow="visible" fill="#00aeef"/><path style="isolation:auto;mix-blend-mode:normal" d="M32.399 1.895h9.79l2.676 2.884v9.817L42.19 17.43H32.4l-2.796-2.835V4.779z" color="#000" overflow="visible" fill="#f2f6fa" stroke="#000" stroke-width=".7010128800000001" stroke-linecap="round"/><path style="isolation:auto;mix-blend-mode:normal" d="M30.76 5.201l2.088-2.162h8.874L43.819 5.2v8.945l-2.107 2.172h-8.864l-2.088-2.172z" color="#000" overflow="visible" fill="none" stroke="#000" stroke-width=".2885976" stroke-linecap="round"/><g><path class="swrpg_secondary" d="M2.394.055h20.46L24.5 1.777v.73l-1.646 1.697H2.394L.734 2.507v-.73zM2.394 4.67h20.46L24.5 6.394v.73L22.854 8.82H2.394L.734 7.123v-.73zM2.394 9.277h20.46L24.5 11v.73l-1.646 1.698H2.394l-1.66-1.698V11zM2.276 13.896h20.461l1.646 1.722v6.828l-1.646 1.697H2.277l-1.66-1.697v-6.828z" style="isolation:auto;mix-blend-mode:normal" color="#000" overflow="visible" fill="#284666" stroke="#000" stroke-width=".10915506" stroke-linecap="round"/><path class="primary_colour" d="M2.394 19.185h20.43l.868.954v2.456l-.868 1.023H2.394l-.903-1.027V20.14z" style="isolation:auto;mix-blend-mode:normal" color="#000" overflow="visible" fill="#00aeef"/><path style="isolation:auto;mix-blend-mode:normal" d="M7.876 1.895h9.79l2.677 2.884v9.817l-2.676 2.835H7.876L5.08 14.596V4.779z" color="#000" overflow="visible" fill="#f2f6fa" stroke="#000" stroke-width=".7010128800000001" stroke-linecap="round"/><path style="isolation:auto;mix-blend-mode:normal" d="M6.237 5.201L8.325 3.04H17.2L19.297 5.2v8.945l-2.108 2.172H8.325l-2.088-2.172z" color="#000" overflow="visible" fill="none" stroke="#000" stroke-width=".2885976" stroke-linecap="round"/></g><g><path d="M137.816 17.205h22.82l3.89 3.811v7.546l-3.89 3.889h-22.82l-3.928-3.89v-7.545z" fill="#bcae9a" stroke="#284666" stroke-width=".099"/><path d="M138.077 17.877h22.26l3.586 3.587v6.65l-3.586 3.586h-22.26l-3.586-3.586v-6.65z" fill="#fff" stroke="#284666" stroke-width=".46"/><path d="M138.31 18.382h21.807l2.083 2.083-2.083 2.084H138.31l-2.083-2.084z" fill="#284666"/></g><g><path d="M95.745 17.205h22.82l3.89 3.811v7.546l-3.89 3.889h-22.82l-3.929-3.89v-7.545z" fill="#bcae9a" stroke="#284666" stroke-width=".099"/><path d="M96.006 17.877h22.259l3.586 3.587v6.65l-3.586 3.586h-22.26l-3.586-3.586v-6.65z" fill="#fff" stroke="#284666" stroke-width=".46"/><path d="M96.238 18.382h21.807l2.083 2.083-2.083 2.084H96.238l-2.083-2.084z" fill="#284666"/></g><path d="M117.465 14.727V5.373M103.032 14.66V5.306M88.733 14.727V5.373" fill="none" stroke="#284666" stroke-width=".265" stroke-opacity=".98"/></g></svg>