<?xml version="1.0" encoding="UTF-8"?>
<svg width="1551.1" height="230.22" enable-background="new" version="1.1" viewBox="0 0 1454.1 215.84" xmlns="http://www.w3.org/2000/svg" xmlns:cc="http://creativecommons.org/ns#" xmlns:dc="http://purl.org/dc/elements/1.1/" xmlns:rdf="http://www.w3.org/1999/02/22-rdf-syntax-ns#">
<metadata>
<rdf:RDF>
<cc:Work rdf:about="">
<dc:format>image/svg+xml</dc:format>
<dc:type rdf:resource="http://purl.org/dc/dcmitype/StillImage"/>
<dc:title/>
</cc:Work>
</rdf:RDF>
</metadata>
<g transform="translate(-340.85 -65.808)" shape-rendering="auto">
<path d="m361.53 281.64h1411.5l21.933-21.381v-131.51l-41.658-42.348h-1370.7l-41.747 42.529v131.09z" color="#000000" color-rendering="auto" enable-background="accumulate" fill="#bcae9a" image-rendering="auto" solid-color="#000000" style="isolation:auto;mix-blend-mode:normal"/>
<g transform="translate(266.84 4.346)">
<path class="swrpg_secondary" d="m122.08 61.931h175.83l14.146 14.798v6.274l-14.146 14.586h-175.83l-14.264-14.586v-6.274z" color="#000000" color-rendering="auto" enable-background="accumulate" fill="#51634b" image-rendering="auto" solid-color="#000000" stroke="#000" stroke-linecap="round" stroke-width=".9375" style="isolation:auto;mix-blend-mode:normal"/>
<path class="swrpg_secondary" d="m122.08 101.6h175.83l14.146 14.798v6.274l-14.146 14.586h-175.83l-14.264-14.586v-6.274z" color="#000000" color-rendering="auto" enable-background="accumulate" fill="#51634b" image-rendering="auto" solid-color="#000000" stroke="#000" stroke-linecap="round" stroke-width=".9375" style="isolation:auto;mix-blend-mode:normal"/>
<path class="swrpg_secondary" d="m122.08 141.18h175.83l14.146 14.798v6.274l-14.146 14.586h-175.83l-14.264-14.586v-6.274z" color="#000000" color-rendering="auto" enable-background="accumulate" fill="#51634b" image-rendering="auto" solid-color="#000000" stroke="#000" stroke-linecap="round" stroke-width=".9375" style="isolation:auto;mix-blend-mode:normal"/>
<path class="swrpg_secondary" d="m121.08 180.88h175.83l14.146 14.798v58.674l-14.146 14.586h-175.83l-14.264-14.586v-58.674z" color="#000000" color-rendering="auto" enable-background="accumulate" fill="#51634b" image-rendering="auto" solid-color="#000000" stroke="#000" stroke-linecap="round" stroke-width=".9375" style="isolation:auto;mix-blend-mode:normal"/>
<circle cx="210.12" cy="143.38" r="73.039" color="#000000" color-rendering="auto" enable-background="accumulate" fill="#f5f5f5" image-rendering="auto" solid-color="#000000" stroke="#000" stroke-linecap="round" stroke-width="7.0312" style="isolation:auto;mix-blend-mode:normal"/>
<circle cx="209.88" cy="143.38" r="63.332" color="#000000" color-rendering="auto" enable-background="accumulate" fill="none" image-rendering="auto" opacity=".95" solid-color="#000000" stroke="#000" stroke-linecap="round" stroke-width="2.8125" style="isolation:auto;mix-blend-mode:normal"/>
<circle cx="210" cy="143.73" r="57.058" color="#000000" color-rendering="auto" enable-background="accumulate" fill="none" image-rendering="auto" opacity=".95" solid-color="#000000" stroke="#000" stroke-linecap="round" stroke-width="1.4062" style="isolation:auto;mix-blend-mode:normal"/>
<path class="primary_colour" d="m122.08 226.33h175.57l7.4578 8.1967v21.099l-7.4578 8.7978h-175.57l-7.7585-8.8258v-21.071z" color="#000000" color-rendering="auto" enable-background="accumulate" fill="#761213" image-rendering="auto" solid-color="#000000" style="isolation:auto;mix-blend-mode:normal"/>
</g>
<g transform="translate(504.04 4.346)">
<path class="swrpg_secondary" d="m122.08 61.931h175.83l14.146 14.798v6.274l-14.146 14.586h-175.83l-14.264-14.586v-6.274z" color="#000000" color-rendering="auto" enable-background="accumulate" fill="#51634b" image-rendering="auto" solid-color="#000000" stroke="#000" stroke-linecap="round" stroke-width=".9375" style="isolation:auto;mix-blend-mode:normal"/>
<path class="swrpg_secondary" d="m122.08 101.6h175.83l14.146 14.798v6.274l-14.146 14.586h-175.83l-14.264-14.586v-6.274z" color="#000000" color-rendering="auto" enable-background="accumulate" fill="#51634b" image-rendering="auto" solid-color="#000000" stroke="#000" stroke-linecap="round" stroke-width=".9375" style="isolation:auto;mix-blend-mode:normal"/>
<path class="swrpg_secondary" d="m122.08 141.18h175.83l14.146 14.798v6.274l-14.146 14.586h-175.83l-14.264-14.586v-6.274z" color="#000000" color-rendering="auto" enable-background="accumulate" fill="#51634b" image-rendering="auto" solid-color="#000000" stroke="#000" stroke-linecap="round" stroke-width=".9375" style="isolation:auto;mix-blend-mode:normal"/>
<path class="swrpg_secondary" d="m121.08 180.88h175.83l14.146 14.798v58.674l-14.146 14.586h-175.83l-14.264-14.586v-58.674z" color="#000000" color-rendering="auto" enable-background="accumulate" fill="#51634b" image-rendering="auto" solid-color="#000000" stroke="#000" stroke-linecap="round" stroke-width=".9375" style="isolation:auto;mix-blend-mode:normal"/>
<circle cx="210.12" cy="143.38" r="73.039" color="#000000" color-rendering="auto" enable-background="accumulate" fill="#f5f5f5" image-rendering="auto" solid-color="#000000" stroke="#000" stroke-linecap="round" stroke-width="7.0312" style="isolation:auto;mix-blend-mode:normal"/>
<circle cx="209.88" cy="143.38" r="63.332" color="#000000" color-rendering="auto" enable-background="accumulate" fill="none" image-rendering="auto" opacity=".95" solid-color="#000000" stroke="#000" stroke-linecap="round" stroke-width="2.8125" style="isolation:auto;mix-blend-mode:normal"/>
<circle cx="210" cy="143.73" r="57.058" color="#000000" color-rendering="auto" enable-background="accumulate" fill="none" image-rendering="auto" opacity=".95" solid-color="#000000" stroke="#000" stroke-linecap="round" stroke-width="1.4062" style="isolation:auto;mix-blend-mode:normal"/>
<path class="primary_colour" d="m122.08 226.33h175.57l7.4578 8.1967v21.099l-7.4578 8.7978h-175.57l-7.7585-8.8258v-21.071z" color="#000000" color-rendering="auto" enable-background="accumulate" fill="#761213" image-rendering="auto" solid-color="#000000" style="isolation:auto;mix-blend-mode:normal"/>
</g>
<g transform="translate(741.27 4.346)">
<path class="swrpg_secondary" d="m122.08 61.931h175.83l14.146 14.798v6.274l-14.146 14.586h-175.83l-14.264-14.586v-6.274z" color="#000000" color-rendering="auto" enable-background="accumulate" fill="#51634b" image-rendering="auto" solid-color="#000000" stroke="#000" stroke-linecap="round" stroke-width=".9375" style="isolation:auto;mix-blend-mode:normal"/>
<path class="swrpg_secondary" d="m122.08 101.6h175.83l14.146 14.798v6.274l-14.146 14.586h-175.83l-14.264-14.586v-6.274z" color="#000000" color-rendering="auto" enable-background="accumulate" fill="#51634b" image-rendering="auto" solid-color="#000000" stroke="#000" stroke-linecap="round" stroke-width=".9375" style="isolation:auto;mix-blend-mode:normal"/>
<path class="swrpg_secondary" d="m122.08 141.18h175.83l14.146 14.798v6.274l-14.146 14.586h-175.83l-14.264-14.586v-6.274z" color="#000000" color-rendering="auto" enable-background="accumulate" fill="#51634b" image-rendering="auto" solid-color="#000000" stroke="#000" stroke-linecap="round" stroke-width=".9375" style="isolation:auto;mix-blend-mode:normal"/>
<path class="swrpg_secondary" d="m121.08 180.88h175.83l14.146 14.798v58.674l-14.146 14.586h-175.83l-14.264-14.586v-58.674z" color="#000000" color-rendering="auto" enable-background="accumulate" fill="#51634b" image-rendering="auto" solid-color="#000000" stroke="#000" stroke-linecap="round" stroke-width=".9375" style="isolation:auto;mix-blend-mode:normal"/>
<circle cx="210.12" cy="143.38" r="73.039" color="#000000" color-rendering="auto" enable-background="accumulate" fill="#f5f5f5" image-rendering="auto" solid-color="#000000" stroke="#000" stroke-linecap="round" stroke-width="7.0312" style="isolation:auto;mix-blend-mode:normal"/>
<circle cx="209.88" cy="143.38" r="63.332" color="#000000" color-rendering="auto" enable-background="accumulate" fill="none" image-rendering="auto" opacity=".95" solid-color="#000000" stroke="#000" stroke-linecap="round" stroke-width="2.8125" style="isolation:auto;mix-blend-mode:normal"/>
<circle cx="210" cy="143.73" r="57.058" color="#000000" color-rendering="auto" enable-background="accumulate" fill="none" image-rendering="auto" opacity=".95" solid-color="#000000" stroke="#000" stroke-linecap="round" stroke-width="1.4062" style="isolation:auto;mix-blend-mode:normal"/>
<path class="primary_colour" d="m122.08 226.33h175.57l7.4578 8.1967v21.099l-7.4578 8.7978h-175.57l-7.7585-8.8258v-21.071z" color="#000000" color-rendering="auto" enable-background="accumulate" fill="#761213" image-rendering="auto" solid-color="#000000" style="isolation:auto;mix-blend-mode:normal"/>
</g>
<g transform="translate(979.23 4.346)">
<path class="swrpg_secondary" d="m122.08 61.931h175.83l14.146 14.798v6.274l-14.146 14.586h-175.83l-14.264-14.586v-6.274z" color="#000000" color-rendering="auto" enable-background="accumulate" fill="#51634b" image-rendering="auto" solid-color="#000000" stroke="#000" stroke-linecap="round" stroke-width=".9375" style="isolation:auto;mix-blend-mode:normal"/>
<path class="swrpg_secondary" d="m122.08 101.6h175.83l14.146 14.798v6.274l-14.146 14.586h-175.83l-14.264-14.586v-6.274z" color="#000000" color-rendering="auto" enable-background="accumulate" fill="#51634b" image-rendering="auto" solid-color="#000000" stroke="#000" stroke-linecap="round" stroke-width=".9375" style="isolation:auto;mix-blend-mode:normal"/>
<path class="swrpg_secondary" d="m122.08 141.18h175.83l14.146 14.798v6.274l-14.146 14.586h-175.83l-14.264-14.586v-6.274z" color="#000000" color-rendering="auto" enable-background="accumulate" fill="#51634b" image-rendering="auto" solid-color="#000000" stroke="#000" stroke-linecap="round" stroke-width=".9375" style="isolation:auto;mix-blend-mode:normal"/>
<path class="swrpg_secondary" d="m121.08 180.88h175.83l14.146 14.798v58.674l-14.146 14.586h-175.83l-14.264-14.586v-58.674z" color="#000000" color-rendering="auto" enable-background="accumulate" fill="#51634b" image-rendering="auto" solid-color="#000000" stroke="#000" stroke-linecap="round" stroke-width=".9375" style="isolation:auto;mix-blend-mode:normal"/>
<circle cx="210.12" cy="143.38" r="73.039" color="#000000" color-rendering="auto" enable-background="accumulate" fill="#f5f5f5" image-rendering="auto" solid-color="#000000" stroke="#000" stroke-linecap="round" stroke-width="7.0312" style="isolation:auto;mix-blend-mode:normal"/>
<circle cx="209.88" cy="143.38" r="63.332" color="#000000" color-rendering="auto" enable-background="accumulate" fill="none" image-rendering="auto" opacity=".95" solid-color="#000000" stroke="#000" stroke-linecap="round" stroke-width="2.8125" style="isolation:auto;mix-blend-mode:normal"/>
<circle cx="210" cy="143.73" r="57.058" color="#000000" color-rendering="auto" enable-background="accumulate" fill="none" image-rendering="auto" opacity=".95" solid-color="#000000" stroke="#000" stroke-linecap="round" stroke-width="1.4062" style="isolation:auto;mix-blend-mode:normal"/>
<path class="primary_colour" d="m122.08 226.33h175.57l7.4578 8.1967v21.099l-7.4578 8.7978h-175.57l-7.7585-8.8258v-21.071z" color="#000000" color-rendering="auto" enable-background="accumulate" fill="#761213" image-rendering="auto" solid-color="#000000" style="isolation:auto;mix-blend-mode:normal"/>
</g>
<g transform="translate(1215.3 4.346)">
<path class="swrpg_secondary" d="m122.08 61.931h175.83l14.146 14.798v6.274l-14.146 14.586h-175.83l-14.264-14.586v-6.274z" color="#000000" color-rendering="auto" enable-background="accumulate" fill="#51634b" image-rendering="auto" solid-color="#000000" stroke="#000" stroke-linecap="round" stroke-width=".9375" style="isolation:auto;mix-blend-mode:normal"/>
<path class="swrpg_secondary" d="m122.08 101.6h175.83l14.146 14.798v6.274l-14.146 14.586h-175.83l-14.264-14.586v-6.274z" color="#000000" color-rendering="auto" enable-background="accumulate" fill="#51634b" image-rendering="auto" solid-color="#000000" stroke="#000" stroke-linecap="round" stroke-width=".9375" style="isolation:auto;mix-blend-mode:normal"/>
<path class="swrpg_secondary" d="m122.08 141.18h175.83l14.146 14.798v6.274l-14.146 14.586h-175.83l-14.264-14.586v-6.274z" color="#000000" color-rendering="auto" enable-background="accumulate" fill="#51634b" image-rendering="auto" solid-color="#000000" stroke="#000" stroke-linecap="round" stroke-width=".9375" style="isolation:auto;mix-blend-mode:normal"/>
<path class="swrpg_secondary" d="m121.08 180.88h175.83l14.146 14.798v58.674l-14.146 14.586h-175.83l-14.264-14.586v-58.674z" color="#000000" color-rendering="auto" enable-background="accumulate" fill="#51634b" image-rendering="auto" solid-color="#000000" stroke="#000" stroke-linecap="round" stroke-width=".9375" style="isolation:auto;mix-blend-mode:normal"/>
<circle cx="210.12" cy="143.38" r="73.039" color="#000000" color-rendering="auto" enable-background="accumulate" fill="#f5f5f5" image-rendering="auto" solid-color="#000000" stroke="#000" stroke-linecap="round" stroke-width="7.0312" style="isolation:auto;mix-blend-mode:normal"/>
<circle cx="209.88" cy="143.38" r="63.332" color="#000000" color-rendering="auto" enable-background="accumulate" fill="none" image-rendering="auto" opacity=".95" solid-color="#000000" stroke="#000" stroke-linecap="round" stroke-width="2.8125" style="isolation:auto;mix-blend-mode:normal"/>
<circle cx="210" cy="143.73" r="57.058" color="#000000" color-rendering="auto" enable-background="accumulate" fill="none" image-rendering="auto" opacity=".95" solid-color="#000000" stroke="#000" stroke-linecap="round" stroke-width="1.4062" style="isolation:auto;mix-blend-mode:normal"/>
<path class="primary_colour" d="m122.08 226.33h175.57l7.4578 8.1967v21.099l-7.4578 8.7978h-175.57l-7.7585-8.8258v-21.071z" color="#000000" color-rendering="auto" enable-background="accumulate" fill="#761213" image-rendering="auto" solid-color="#000000" style="isolation:auto;mix-blend-mode:normal"/>
</g>
<g transform="translate(1453.6 4.346)">
<path class="swrpg_secondary" d="m122.08 61.931h175.83l14.146 14.798v6.274l-14.146 14.586h-175.83l-14.264-14.586v-6.274z" color="#000000" color-rendering="auto" enable-background="accumulate" fill="#51634b" image-rendering="auto" solid-color="#000000" stroke="#000" stroke-linecap="round" stroke-width=".9375" style="isolation:auto;mix-blend-mode:normal"/>
<path class="swrpg_secondary" d="m122.08 101.6h175.83l14.146 14.798v6.274l-14.146 14.586h-175.83l-14.264-14.586v-6.274z" color="#000000" color-rendering="auto" enable-background="accumulate" fill="#51634b" image-rendering="auto" solid-color="#000000" stroke="#000" stroke-linecap="round" stroke-width=".9375" style="isolation:auto;mix-blend-mode:normal"/>
<path class="swrpg_secondary" d="m122.08 141.18h175.83l14.146 14.798v6.274l-14.146 14.586h-175.83l-14.264-14.586v-6.274z" color="#000000" color-rendering="auto" enable-background="accumulate" fill="#51634b" image-rendering="auto" solid-color="#000000" stroke="#000" stroke-linecap="round" stroke-width=".9375" style="isolation:auto;mix-blend-mode:normal"/>
<path class="swrpg_secondary" d="m121.08 180.88h175.83l14.146 14.798v58.674l-14.146 14.586h-175.83l-14.264-14.586v-58.674z" color="#000000" color-rendering="auto" enable-background="accumulate" fill="#51634b" image-rendering="auto" solid-color="#000000" stroke="#000" stroke-linecap="round" stroke-width=".9375" style="isolation:auto;mix-blend-mode:normal"/>
<circle cx="210.12" cy="143.38" r="73.039" color="#000000" color-rendering="auto" enable-background="accumulate" fill="#f5f5f5" image-rendering="auto" solid-color="#000000" stroke="#000" stroke-linecap="round" stroke-width="7.0312" style="isolation:auto;mix-blend-mode:normal"/>
<circle cx="209.88" cy="143.38" r="63.332" color="#000000" color-rendering="auto" enable-background="accumulate" fill="none" image-rendering="auto" opacity=".95" solid-color="#000000" stroke="#000" stroke-linecap="round" stroke-width="2.8125" style="isolation:auto;mix-blend-mode:normal"/>
<circle cx="210" cy="143.73" r="57.058" color="#000000" color-rendering="auto" enable-background="accumulate" fill="none" image-rendering="auto" opacity=".95" solid-color="#000000" stroke="#000" stroke-linecap="round" stroke-width="1.4062" style="isolation:auto;mix-blend-mode:normal"/>
<path class="primary_colour" d="m122.08 226.33h175.57l7.4578 8.1967v21.099l-7.4578 8.7978h-175.57l-7.7585-8.8258v-21.071z" color="#000000" color-rendering="auto" enable-background="accumulate" fill="#761213" image-rendering="auto" solid-color="#000000" style="isolation:auto;mix-blend-mode:normal"/>
</g>
</g>
</svg>
